Title: Old Cats Aka Gatos Viejos

Country: Chile/2010

Language: Spanish

Subtitle: English and German

Directors: Pedro Peirano, Sebastián Silva

Writers: Pedro Peirano, Sebastián Silva

Stars: Bélgica Castro, Claudia Celedón and Catalina Saavedra

Plot: Isadora,70's, discovers that her mind is quickly fading. At an apparently relaxed dinner table, she will desperately try to hide her state from her daughter, a demanding woman who awaits any sign of senility in order to take way everything she has. 


Imdb: 
http://www.imdb.com/title/tt1683466/?ref_=fn_al_tt_1

Rip Specs:

General
Complete name                    : Old.Cats.[Gatos.Viejos].2010.DVDRip.AC3.HORiZON-ArtSubs
Format                           : AVI
Format/Info                      : Audio Video Interleave
File size                        : 1.47 GiB
Duration                         : 1h 26mn
Overall bit rate                 : 2 432 Kbps
Writing application              : VirtualDubMod 1.5.10.2 (build 2540/release)
Writing library                  : VirtualDubMod build 2540/release

Video
ID                               : 0
Format                           : MPEG-4 Visual
Format profile                   : Advanced Simple@L5
Format settings, BVOP            : 2
Format settings, QPel            : No
Format settings, GMC             : No warppoints
Format settings, Matrix          : Default (MPEG)
Codec ID                         : XVID
Codec ID/Hint                    : XviD
Duration                         : 1h 26mn
Bit rate                         : 1 974 Kbps
Width                            : 704 pixels
Height                           : 400 pixels
Display aspect ratio             : 16:9
Frame rate                       : 25.000 fps
Color space                      : YUV
Chroma subsampling               : 4:2:0
Bit depth                        : 8 bits
Scan type                        : Progressive
Compression mode                 : Lossy
Bits/(Pixel*Frame)               : 0.280
Stream size                      : 1.19 GiB (81%)
Writing library                  : XviD 1.2.1 (UTC 2008-12-04)

Audio
ID                               : 1
Format                           : AC-3
Format/Info                      : Audio Coding 3
Mode extension                   : CM (complete main)
Codec ID                         : 2000
Duration                         : 1h 26mn
Bit rate mode                    : Constant
Bit rate                         : 448 Kbps
Channel(s)                       : 6 channels
Channel positions                : Front: L C R, Side: L R, LFE
Sampling rate                    : 48.0 KHz
Bit depth                        : 16 bits
Compression mode                 : Lossy
Delay relative to video          : 572ms
Stream size                      : 277 MiB (18%)
Alignment                        : Split accross interleaves
Interleave, duration             : 40 ms (1.00 video frame)
Interleave, preload duration     : 500 ms